<?xml version="1.0"?>
<svg xmlns="http://www.w3.org/2000/svg" xmlns:xlink="http://www.w3.org/1999/xlink" id="Layer_1" data-name="Layer 1" viewBox="0 0 400 300">
  <defs>
    <clipPath id="clip-path">
      <rect x="190.99" y="-775.15" width="1128.51" height="705.7" fill="none"/>
    </clipPath>
  </defs>
  <path d="M153.84,59s-6.54-16.86,7.25-23S184.83,43.9,191,29.6s17.65-20.93,28.87-14.29,20.15,18.63,37,9.19,31-9.24,39.62,4.29,47.19,0,29.06,38.81C305,111.43,216,80.89,216,80.89Z" fill="#e6e6e6" opacity="0.34"/>
  <path d="M152.45,131s-13.77,25.32,2.41,25,8.95,9.51,18.66,22.55,22.19-8.17,30.94-1.78-4.69,33.56,38.71,22.64,63.39-.63,64-27.17,20.3-14.74,25.29-26.73,1.57-32,0-33.22S152.45,131,152.45,131Z" fill="#e6e6e6" opacity="0.34"/>
  <path d="M129.48,67.91c-2.31,6.28,6.74,12.31,2.16,17.18-5,5.28-8.54,19,4.9,24,23.05,8.43-2.66,11,10.45,27.59s20.66-10.46,31.26,2.56-5,36.18,17.15,31.15,32.27,2.77,35.5,20.11,35.23,12.08,38.5-5.46,19.67-8.69,36.53-14.65,20.3-9.77,15.62-24.88,6.24-18.86,17.17-23.23,13.11-15.61,4.37-24,5.31-16.55-3.43-28.1-12.49-22.17-31.54-19.36-33-17.8-53.35-10S236.46,32,219.84,35.44s-11,16.86-21.94,16.24S174.79,34.5,162,48.56C150.82,60.81,138.21,44.18,129.48,67.91Z" fill="#e6e6e6"/>
  <ellipse cx="184.08" cy="267.85" rx="119.32" ry="5.58" fill="#e6e6e6" opacity="0.45"/>
  <path d="M134.86,260.22a3.45,3.45,0,0,0,1,3.28c1.48,1.15.89,2.95-.77,2.43s-4.11-4.69-4.11-4.69l2-2.77Z" fill="#68e1fd"/>
  <path d="M155.29,260.22a3.45,3.45,0,0,0,1,3.28c1.48,1.15.89,2.95-.77,2.43s-4.11-4.69-4.11-4.69l2-2.77Z" fill="#68e1fd"/>
  <path d="M82.53,236.47V228a8.65,8.65,0,0,1,8.65-8.65h0A8.65,8.65,0,0,1,99.82,228v8.49" fill="none" stroke="#ffd200" stroke-linecap="round" stroke-linejoin="round" stroke-width="3"/>
  <path d="M78.36,232.13h26.42a0,0,0,0,1,0,0v9.61A9.26,9.26,0,0,1,95.52,251h-7.9a9.26,9.26,0,0,1-9.26-9.26v-9.61A0,0,0,0,1,78.36,232.13Z" fill="#24285b"/>
  <rect x="78.36" y="232.13" width="26.42" height="4.34" fill="#fff" opacity="0.18"/>
  <g clip-path="url(#clip-path)">
    <image width="1920" height="1080" transform="translate(-123.84 -999.2)"/>
  </g>
  <path d="M132.89,173.87a8,8,0,0,0,5.71,10c9.22,2.35,23.32,7.54,33.56,3.55,13.27-5.17,6-35.6,6-35.6l-5.73.51s9.85,39-27,15.56c-4.69-3-11,.63-12.53,6Z" fill="#68e1fd"/>
  <path d="M132.89,173.87a8,8,0,0,0,5.71,10c9.22,2.35,23.32,7.54,33.56,3.55,13.27-5.17,6-35.6,6-35.6l-5.73.51s9.85,39-27,15.56c-4.69-3-11,.63-12.53,6Z" fill="#fff" opacity="0.46"/>
  <path d="M133.8,151.07a23.61,23.61,0,0,1,2.24,5.84,1.89,1.89,0,0,1-1.56,2.18,4.18,4.18,0,0,1-4.26-1.55L127.86,155a3.38,3.38,0,0,1-.09-3.91C129.09,148.82,132.8,149,133.8,151.07Z" fill="#f4a28c"/>
  <polygon points="129.23 154.39 128.38 166.7 135.2 166.69 133.08 157.73 129.23 154.39" fill="#f4a28c"/>
  <path d="M133,151.59a15.15,15.15,0,0,1-3.29,1.16,3.14,3.14,0,0,1,1.39,3.15,2.56,2.56,0,0,1-2.41,2.19l-1.9-4.46a3.85,3.85,0,0,1,.4-3.91,14.88,14.88,0,0,1,1.16-1.38c1-1.07,3.29-1,4-2.41a.91.91,0,0,1,1.56,0c.8,1.25,1.49,3.48,0,5A3.34,3.34,0,0,1,133,151.59Z" fill="#24285b"/>
  <path d="M131.44,155.64s-.61-1.32-1.56-.77-.08,2.44,1.35,2Z" fill="#f4a28c"/>
  <path d="M134.83,153.21l1.55.91a.6.6,0,0,1,0,1l-1.21.83Z" fill="#f4a28c"/>
  <polygon points="249.38 256.19 260.66 234.3 255.02 258.47 266.59 248.07 258.03 266.32 243.49 266.32 249.38 256.19" fill="#afafaf"/>
  <path d="M133.63,159.67a4.47,4.47,0,0,1-2.32-1.11,7.08,7.08,0,0,0,3,4.24Z" fill="#ce8172" opacity="0.31"/>
  <path d="M125.54,166.5h4.64a29.34,29.34,0,0,0,3.38-.2c3.6-.44,14.36-.78,19.9,9.55,6.72,12.52-5.79,36.8-5.79,36.8l-23.35,2.15S92.52,170.66,125.54,166.5Z" fill="#68e1fd"/>
  <path d="M129.57,178.51s1.93,5.39-2.36,14.56,10.14,20.52,10.14,20.52l-13,1.2s-10-14.59-12.61-25.37S129,178.76,129,178.76Z" opacity="0.08"/>
  <path d="M173.79,152.2s-1.36-7.15,2-8.73,2.34,8.35,2.34,8.35Z" fill="#f4a28c"/>
  <path d="M120.88,167.47s-20.2,4.21-26.69,23.92-7.27,23.4-7.27,23.4l7.47,1.45s6.22-25.16,20.64-27.36S135.78,170.62,120.88,167.47Z" fill="#68e1fd"/>
  <path d="M120.88,167.47s-20.2,4.21-26.69,23.92-7.27,23.4-7.27,23.4l7.47,1.45s6.22-25.16,20.64-27.36S135.78,170.62,120.88,167.47Z" fill="#fff" opacity="0.46"/>
  <path d="M89,215.19s-3,8.29,1.29,8.29,4.13-7.24,4.13-7.24Z" fill="#f4a28c"/>
  <polygon points="249.66 266.32 220.85 266.32 226.04 137.39 246.12 137.39 249.66 266.32" fill="#c9c9c9"/>
  <path d="M124.32,214.79l12.32,15.42a8.36,8.36,0,0,1,1.35,8L130.64,259l5.43,1.32,9.7-19.12a14.73,14.73,0,0,0,.27-12.75l-4.15-9.11,5.78-6.69Z" fill="#24285b"/>
  <path d="M229.48,267.21s4.31-6.19-2.11-7.9,1.54-10-4.44-11.14-5,7.73-5,7.73-4.13-3.56-7-.57,1.14,6.27,1.14,6.27-5.76,2-2.17,5.61Z" fill="#e6e6e6"/>
  <path d="M220.85,268s2.73-4.68,6.76-4.1,3.6,4.1,3.6,4.1Z" fill="#c9c9c9"/>
  <polygon points="225.62 152.2 185.32 132.42 186.38 128.51 226.04 137.39 225.62 152.2" fill="#c9c9c9"/>
  <path d="M167,113.85a6.27,6.27,0,0,1-4.82,4.55c-4.05.84-9,3.24-6.74,10.11,1.59,4.78,4.22,6.41,6.67,6.74a4.12,4.12,0,0,1,3.42,3.91c.12,1.43,1.09,2.93,3.8,4.14,7.87,3.54,9.17-4.45,16,2.16s14.51-5,10.22-10.42,8.91-7.33,2.88-15.46-15.48-.52-15.48-.52,3.58-8.13-5.54-9.7C170.71,108.2,167.89,110.41,167,113.85Z" fill="#d3d3d3"/>
  <circle cx="177.26" cy="138.54" r="9.56" opacity="0.08"/>
  <circle cx="177.26" cy="138.54" r="9.56" fill="#ffd200"/>
  <circle cx="177.26" cy="138.54" r="9.56" opacity="0.08"/>
  <g opacity="0.08">
    <circle cx="176.79" cy="135.66" r="9.56"/>
  </g>
  <circle cx="176.79" cy="135.66" r="9.56" fill="#ffd200"/>
  <path d="M177.19,130.64c.27,0,.35.09.35.36v.58a2.63,2.63,0,0,1,2.17,1.63c.14.29.08.44-.24.58l-.58.26c-.27.13-.4.07-.55-.21a1.47,1.47,0,0,0-1.5-.91c-1,0-1.46.3-1.46,1,0,.43.4.7.81.78a5.32,5.32,0,0,0,.85.13,5.54,5.54,0,0,1,1.56.31,2,2,0,0,1,.69.38,2.25,2.25,0,0,1,.63,1.64c0,1.28-.86,2.15-2.38,2.38v.61c0,.27-.08.36-.35.36h-.65c-.27,0-.36-.09-.36-.36v-.6a2.65,2.65,0,0,1-2.35-1.81.38.38,0,0,1,.27-.54l.57-.21c.3-.11.43,0,.56.25a1.52,1.52,0,0,0,1.58,1c1.09,0,1.63-.34,1.63-1a.72.72,0,0,0-.51-.73,4,4,0,0,0-1.16-.23,4.79,4.79,0,0,1-1.58-.34,2.2,2.2,0,0,1-.68-.38,2.18,2.18,0,0,1-.64-1.6c0-1.27.8-2.12,2.31-2.32V131c0-.27.09-.36.36-.36Z" fill="#fff"/>
  <polygon points="247.25 178.51 284.13 156.96 281.77 151.82 246.82 162.8 247.25 178.51" fill="#c9c9c9"/>
  <path d="M215.72,131s-2.88,12.48,6.55,12.34,11.27-2.94,11.27-2.94-1,11.44,8.91,9.09S253.2,147.1,253.2,139s1.57-8,1.57-8-5-15.31-17.56-12.69S215.72,131,215.72,131Z" fill="#e6e6e6"/>
  <path d="M284.87,141.54s-9.95,12.73.57,19.71,5.71,9.91,14.26,9.15S305.12,159,305.12,159s9.41.78,9.69-6-8-9.09-8-9.09,4.27-9.43-3.14-12.69-9.41,5.08-9.41,5.08-1.71-5.89-5.7-5.83S276.89,136.91,284.87,141.54Z" fill="#d3d3d3"/>
  <circle cx="287.35" cy="165.28" r="9.56" opacity="0.08"/>
  <circle cx="287.35" cy="165.28" r="9.56" fill="#ffd200"/>
  <circle cx="287.35" cy="165.28" r="9.56" opacity="0.08"/>
  <g opacity="0.08">
    <circle cx="286.88" cy="162.4" r="9.56"/>
  </g>
  <circle cx="286.88" cy="162.4" r="9.56" fill="#ffd200"/>
  <path d="M287.28,157.38c.27,0,.35.09.35.36v.58A2.63,2.63,0,0,1,289.8,160c.14.28.08.44-.24.58l-.57.26c-.28.12-.4.07-.56-.22a1.46,1.46,0,0,0-1.5-.9c-1,0-1.46.29-1.46,1a.89.89,0,0,0,.81.79,6.79,6.79,0,0,0,.85.13,5.47,5.47,0,0,1,1.56.31,2.09,2.09,0,0,1,.7.37,2.33,2.33,0,0,1,.62,1.65c0,1.28-.86,2.15-2.38,2.37v.61c0,.27-.08.37-.35.37h-.65c-.27,0-.36-.1-.36-.37v-.6a2.66,2.66,0,0,1-2.35-1.81c-.1-.25,0-.43.27-.54l.57-.21c.3-.1.43,0,.56.26a1.53,1.53,0,0,0,1.58,1c1.09,0,1.63-.34,1.63-1a.73.73,0,0,0-.51-.73,4,4,0,0,0-1.16-.22,5.35,5.35,0,0,1-1.58-.34,2.43,2.43,0,0,1-.68-.39,2.16,2.16,0,0,1-.64-1.6c0-1.27.8-2.11,2.31-2.31v-.58c0-.27.09-.36.36-.36Z" fill="#fff"/>
  <circle cx="195.7" cy="79.74" r="10.68" opacity="0.08"/>
  <circle cx="195.7" cy="79.74" r="10.68" fill="#ffd200"/>
  <circle cx="195.7" cy="79.74" r="10.68" opacity="0.08"/>
  <g opacity="0.08">
    <circle cx="194.44" cy="76.74" r="10.68"/>
  </g>
  <circle cx="194.44" cy="76.74" r="10.68" fill="#ffd200"/>
  <path d="M193.54,71.18c.3-.07.41,0,.48.3l.15.63a2.92,2.92,0,0,1,2.78,1.2c.23.27.21.45-.1.69l-.56.43c-.26.21-.41.19-.65-.08a1.66,1.66,0,0,0-1.88-.59c-1.08.27-1.5.71-1.32,1.43a1,1,0,0,0,1.08.65,9.21,9.21,0,0,0,1-.09,6.34,6.34,0,0,1,1.78-.08,2.45,2.45,0,0,1,.85.23,2.5,2.5,0,0,1,1.11,1.62c.34,1.39-.37,2.56-1.95,3.21l.16.66c.07.29,0,.42-.29.49l-.7.17c-.3.07-.42,0-.49-.3l-.16-.65a3,3,0,0,1-3-1.35.43.43,0,0,1,.15-.66l.57-.38c.29-.19.45-.15.67.14a1.72,1.72,0,0,0,2,.65c1.17-.28,1.67-.8,1.49-1.55a.8.8,0,0,0-.74-.66,4.43,4.43,0,0,0-1.32.07,6.14,6.14,0,0,1-1.81,0,2.45,2.45,0,0,1-.84-.24,2.41,2.41,0,0,1-1.11-1.57c-.33-1.38.31-2.51,1.89-3.12l-.15-.63c-.07-.29,0-.42.3-.49Z" fill="#fff"/>
  <circle cx="295.15" cy="86.71" r="9.59" opacity="0.08"/>
  <circle cx="295.15" cy="86.71" r="9.59" fill="#ffd200"/>
  <circle cx="295.15" cy="86.71" r="9.59" opacity="0.08"/>
  <g opacity="0.08">
    <circle cx="294.61" cy="83.84" r="9.59"/>
  </g>
  <circle cx="294.61" cy="83.84" r="9.59" fill="#ffd200"/>
  <path d="M294.88,78.79c.27,0,.36.09.36.36l0,.58a2.63,2.63,0,0,1,2.21,1.58c.15.28.09.44-.22.59l-.57.27c-.27.14-.4.08-.56-.2a1.5,1.5,0,0,0-1.54-.87c-1,0-1.45.33-1.43,1a.89.89,0,0,0,.83.77,4.79,4.79,0,0,0,.85.11,5.39,5.39,0,0,1,1.58.27,2.19,2.19,0,0,1,.7.36,2.27,2.27,0,0,1,.67,1.63c0,1.29-.81,2.18-2.32,2.44v.62c0,.27-.07.36-.34.37l-.65,0c-.27,0-.37-.09-.38-.36v-.6a2.69,2.69,0,0,1-2.4-1.76.39.39,0,0,1,.25-.55l.58-.22c.29-.12.42,0,.56.24a1.52,1.52,0,0,0,1.61,1c1.09,0,1.62-.38,1.6-1.07a.72.72,0,0,0-.52-.72,4.28,4.28,0,0,0-1.17-.2,5.1,5.1,0,0,1-1.59-.3,1.91,1.91,0,0,1-1.37-2,2.3,2.3,0,0,1,2.25-2.38v-.58c0-.27.08-.36.35-.37Z" fill="#fff"/>
  <circle cx="243.78" cy="112.55" r="9.56" opacity="0.08"/>
  <circle cx="243.78" cy="112.55" r="9.56" fill="#ffd200"/>
  <circle cx="243.78" cy="112.55" r="9.56" opacity="0.08"/>
  <g opacity="0.08">
    <circle cx="243.9" cy="109.64" r="9.56"/>
  </g>
  <circle cx="243.9" cy="109.64" r="9.56" fill="#ffd200"/>
  <path d="M245.31,104.8c.27,0,.33.16.27.43l-.11.56a2.61,2.61,0,0,1,1.78,2c.08.31,0,.44-.34.52l-.62.13c-.29.07-.41,0-.5-.32A1.48,1.48,0,0,0,244.5,107c-1-.2-1.49,0-1.62.65a.89.89,0,0,0,.63.93,5.54,5.54,0,0,0,.8.3,5.76,5.76,0,0,1,1.47.62,2,2,0,0,1,.61.51,2.25,2.25,0,0,1,.27,1.74,2.4,2.4,0,0,1-2.81,1.84l-.12.6c-.06.27-.15.34-.42.29l-.63-.14c-.27,0-.34-.16-.29-.43l.13-.58a2.7,2.7,0,0,1-1.94-2.26c0-.27.09-.42.38-.47l.6-.09c.31,0,.43,0,.49.37a1.55,1.55,0,0,0,1.36,1.29c1.05.22,1.65,0,1.79-.69a.71.71,0,0,0-.34-.81,3.83,3.83,0,0,0-1.1-.46,5.3,5.3,0,0,1-1.47-.65,2.36,2.36,0,0,1-.59-.52,2.17,2.17,0,0,1-.3-1.7,2.3,2.3,0,0,1,2.73-1.8l.12-.56c.05-.27.16-.34.43-.28Z" fill="#fff"/>
  <path d="M147.67,212.64s14.82,14.26,13.8,25.25a121.07,121.07,0,0,1-4.36,21.71l-5.73-1.73s9.19-30-15.39-35.55Z" fill="#24285b"/>
</svg>
